# xmcd CD database file
#
# Track frame offsets:
#	187
#	27010
#	50952
#	80325
#	105077
#	125457
#	145622
#	150970
#	168720
#	192355
#	221710
#	247520
#
# Disc length: 3708 seconds
#
# Revision: 0
# Processed by: cddbd v1.5.1PL0 Copyright (c) Steve Scherf et al.
# Submitted via: CDex 1.51
#
DISCID=920e7a0c
DTITLE=nadege - aquatique
DYEAR=1996
DGENRE=Pop
TTITLE0=J'ATTENDRAI
TTITLE1=LA CITE DES TEMPS
TTITLE2=C'EST LA FORET
TTITLE3=QUE SERA SERA
TTITLE4=WHITE HOLE IN TIME
TTITLE5=DIVA
TTITLE6=INTROCOSME
TTITLE7=MICROCOSME
TTITLE8=RAPPELE-TOI
TTITLE9=AQUATIQUE
TTITLE10=AMONG FIELDS OF CRYSTAL
TTITLE11=J'ATTENDRAI (A.E.F.remix)
EXTD=YEAR: 1996
EXTT0=
EXTT1=
EXTT2=
EXTT3=
EXTT4=
EXTT5=
EXTT6=
EXTT7=
EXTT8=
EXTT9=
EXTT10=
EXTT11=
PLAYORDER=
